<svg width="20" height="20" viewBox="0 0 20 20" fill="none" xmlns="http://www.w3.org/2000/svg">
<rect width="6.10505" height="15.6494" rx="3.05252" transform="matrix(0.229828 -0.973231 0.974261 0.225421 17.2168 23.508)" fill="#FF5B8C"/>
<rect width="6.13401" height="15.5762" rx="3.06701" transform="matrix(-0.720029 -0.693944 -0.701257 0.712909 17.3809 16.671)" fill="#00B787"/>
<rect width="6.13365" height="15.5771" rx="3.06682" transform="matrix(0.715951 -0.698151 -0.705423 -0.708786 12.9883 21.0472)" fill="#86EF5F"/>
<rect width="6.15987" height="15.5102" rx="3.07994" transform="matrix(0.963611 -0.26731 -0.272419 -0.962179 18.9453 16.5702)" fill="#0085E6"/>
<rect width="6.10785" height="15.6423" rx="3.05392" transform="matrix(0.31324 0.949674 0.951544 -0.307513 17.2031 10.8577)" fill="#00D4F8"/>
<ellipse cx="30.133" cy="9.87847" rx="3.0822" ry="3.05089" fill="#0085E6"/>
<ellipse cx="6.33806" cy="10.0004" rx="3.0822" ry="3.05089" fill="#00B787"/>
<rect width="6.16225" height="15.5041" rx="3.08112" transform="matrix(0.982857 0.184372 -0.188042 0.982161 18.4375 17.6364)" fill="#FFBE40"/>
<ellipse cx="19.0978" cy="30.5024" rx="3.0822" ry="3.05089" fill="#FF5B8C"/>
</svg>
