<svg width="256" height="256" viewBox="0 0 256 256" fill="none" xmlns="http://www.w3.org/2000/svg">
<rect width="256" height="256" rx="64" fill="black"/>
<path d="M139.806 171.344C129.858 169.02 123.678 159.077 126.004 149.136C128.329 139.195 138.279 133.02 148.227 135.344L203.708 148.303C213.656 150.626 219.836 160.569 217.51 170.51C215.185 180.451 205.235 186.626 195.287 184.303L139.806 171.344Z" fill="#FF5B8C"/>
<path d="M109.87 138.955C116.997 131.641 116.841 119.938 109.521 112.816C102.201 105.694 90.4894 105.85 83.3622 113.164L43.6152 153.957C36.488 161.271 36.6443 172.975 43.9643 180.097C51.2842 187.219 62.9959 187.062 70.1231 179.748L109.87 138.955Z" fill="#00B787"/>
<path d="M83.4341 139.057C90.604 146.33 102.316 146.418 109.594 139.253C116.873 132.088 116.96 120.384 109.79 113.112L69.8047 72.5528C62.6347 65.2801 50.9223 65.1925 43.6443 72.3572C36.3662 79.5219 36.2786 91.2258 43.4485 98.4985L83.4341 139.057Z" fill="#86EF5F"/>
<path d="M127.184 107.301C129.94 117.131 140.15 122.867 149.988 120.112C159.825 117.357 165.565 107.154 162.808 97.3239L147.433 42.5016C144.676 32.6713 134.466 26.9355 124.629 29.6905C114.791 32.4455 109.051 42.6479 111.808 52.4783L127.184 107.301Z" fill="#0085E6"/>
<path d="M139.286 84.7512C129.574 87.9197 124.271 98.3558 127.442 108.061C130.613 117.766 141.057 123.064 150.769 119.896L204.931 102.225C214.643 99.0568 219.946 88.6208 216.775 78.9158C213.604 69.2109 203.16 63.9121 193.448 67.0806L139.286 84.7512Z" fill="#00D4F8"/>
<path d="M217.808 84.5553C217.808 94.7644 209.526 103.04 199.309 103.04C189.093 103.04 180.81 94.7644 180.81 84.5553C180.81 74.3462 189.093 66.07 199.309 66.07C209.526 66.07 217.808 74.3462 217.808 84.5553Z" fill="#0085E6"/>
<path d="M74.9974 85.2942C74.9974 95.5033 66.7153 103.779 56.4987 103.779C46.2822 103.779 38 95.5033 38 85.2942C38 75.0851 46.2822 66.809 56.4987 66.809C66.7153 66.809 74.9974 75.0851 74.9974 85.2942Z" fill="#00B787"/>
<path d="M125.679 149.722C127.581 139.691 137.261 133.101 147.299 135.002C157.336 136.903 163.932 146.575 162.029 156.606L151.42 212.545C149.518 222.575 139.839 229.166 129.801 227.265C119.763 225.364 113.168 215.691 115.07 205.661L125.679 149.722Z" fill="#FFBE40"/>
<path d="M151.582 209.515C151.582 219.724 143.3 228 133.084 228C122.867 228 114.585 219.724 114.585 209.515C114.585 199.306 122.867 191.03 133.084 191.03C143.3 191.03 151.582 199.306 151.582 209.515Z" fill="#FF5B8C"/>
</svg>
